<?xml version="1.0" encoding="UTF-8"?>
<!DOCTYPE svg PUBLIC "-//W3C//DTD SVG 1.1//EN" "http://www.w3.org/Graphics/SVG/1.1/DTD/svg11.dtd">
<svg xmlns="http://www.w3.org/2000/svg" version="1.1" width="256px" height="256px" style="shape-rendering:geometricPrecision; text-rendering:geometricPrecision; image-rendering:optimizeQuality; fill-rule:evenodd; clip-rule:evenodd" xmlns:xlink="http://www.w3.org/1999/xlink">
<g><path style="opacity:0.928" fill="#ef6f12" d="M 116.5,16.5 C 118.5,18.1667 120.5,19.8333 122.5,21.5C 122.784,24.7766 122.451,27.9433 121.5,31C 115.511,32.5519 109.844,34.8853 104.5,38C 103.167,38.6667 101.833,38.6667 100.5,38C 98.3333,35.8333 96.1667,33.6667 94,31.5C 91.6496,33.6829 89.483,36.0163 87.5,38.5C 89.483,40.9837 91.6496,43.3171 94,45.5C 94.7401,46.7494 94.5735,47.7494 93.5,48.5C 89.7731,43.7703 85.4397,39.7703 80.5,36.5C 83.9629,32.5357 87.6295,28.7023 91.5,25C 93.1667,24.3333 94.8333,24.3333 96.5,25C 98.6667,27.1667 100.833,29.3333 103,31.5C 107.189,28.9376 111.689,27.2709 116.5,26.5C 116.5,23.1667 116.5,19.8333 116.5,16.5 Z"/></g>
<g><path style="opacity:0.9" fill="#eb6716" d="M 80.5,36.5 C 85.4397,39.7703 89.7731,43.7703 93.5,48.5C 90.4633,53.7684 88.2966,59.4351 87,65.5C 84.9592,66.4231 82.7925,66.7564 80.5,66.5C 78.2791,62.7228 74.9458,61.0561 70.5,61.5C 74.2315,60.8045 78.0648,60.1378 82,59.5C 83.108,55.5088 84.608,51.6754 86.5,48C 84.7201,45.2162 82.5535,42.7162 80,40.5C 79.235,38.9343 79.4017,37.6009 80.5,36.5 Z"/></g>
<g><path style="opacity:0.904" fill="#f07211" d="M 144.5,100.5 C 143.925,98.5887 142.925,96.922 141.5,95.5C 155.212,84.9749 158.046,71.9749 150,56.5C 137.312,42.2662 123.479,40.9329 108.5,52.5C 106.833,51.1667 105.167,49.8333 103.5,48.5C 119.536,35.1753 135.702,35.1753 152,48.5C 162.163,62.1061 163.163,76.4394 155,91.5C 151.922,95.0845 148.422,98.0845 144.5,100.5 Z"/></g>
<g><path style="opacity:0.913" fill="#f37a0d" d="M 214.5,78.5 C 214.667,90.1714 214.5,101.838 214,113.5C 212.667,112.167 211.333,110.833 210,109.5C 209.825,114.019 209.325,118.353 208.5,122.5C 208.667,107.496 208.5,92.4963 208,77.5C 207.5,76.3333 206.667,75.5 205.5,75C 198.842,74.5004 192.175,74.3337 185.5,74.5C 185.5,77.1667 185.5,79.8333 185.5,82.5C 184.5,82.5 183.5,82.5 182.5,82.5C 180.833,80.5 179.167,78.5 177.5,76.5C 179.402,73.6627 180.069,70.3293 179.5,66.5C 175.563,66.7935 171.73,66.4601 168,65.5C 166.667,58.8296 164.167,52.663 160.5,47C 162.28,44.2162 164.447,41.7162 167,39.5C 165.935,36.3936 163.935,33.727 161,31.5C 158.577,34.4319 155.743,36.7653 152.5,38.5C 146.396,35.4489 140.062,32.9489 133.5,31C 132.54,27.27 132.207,23.4367 132.5,19.5C 128.671,18.931 125.337,19.5977 122.5,21.5C 120.5,19.8333 118.5,18.1667 116.5,16.5C 116.414,15.5041 116.748,14.6708 117.5,14C 124.167,13.3333 130.833,13.3333 137.5,14C 138.464,18.0659 138.797,22.2325 138.5,26.5C 143.311,27.2709 147.811,28.9376 152,31.5C 154.167,29.3333 156.333,27.1667 158.5,25C 160.167,24.3333 161.833,24.3333 163.5,25C 167.881,29.0448 171.881,33.3781 175.5,38C 173.556,41.6099 171.223,44.9432 168.5,48C 170.392,51.6754 171.892,55.5088 173,59.5C 176.745,60.297 180.579,60.797 184.5,61C 185.435,63.3806 185.768,65.8806 185.5,68.5C 192.841,68.3337 200.174,68.5003 207.5,69C 212.349,70.3448 214.682,73.5115 214.5,78.5 Z"/></g>
<g><path style="opacity:0.889" fill="#eb6616" d="M 103.5,48.5 C 105.167,49.8333 106.833,51.1667 108.5,52.5C 98.8339,63.8328 98.0006,75.8328 106,88.5C 116.2,99.3734 128.033,101.707 141.5,95.5C 142.925,96.922 143.925,98.5887 144.5,100.5C 127.518,108.737 112.685,105.737 100,91.5C 93.5205,79.8277 92.8538,67.8277 98,55.5C 99.6971,52.98 101.53,50.6467 103.5,48.5 Z"/></g>
<g><path style="opacity:0.872" fill="#e85f1a" d="M 70.5,61.5 C 74.9458,61.0561 78.2791,62.7228 80.5,66.5C 78.8333,66.5 77.1667,66.5 75.5,66.5C 75.5,69.8333 75.5,73.1667 75.5,76.5C 78.8499,76.335 82.1832,76.5017 85.5,77C 88.1948,83.7292 91.1948,90.3959 94.5,97C 92.5526,99.9512 90.2193,102.618 87.5,105C 89.6829,107.35 92.0163,109.517 94.5,111.5C 96.9582,108.86 99.7916,106.86 103,105.5C 109.266,108.365 115.6,111.032 122,113.5C 122.499,117.152 122.665,120.818 122.5,124.5C 125.833,124.5 129.167,124.5 132.5,124.5C 132.5,122.833 132.5,121.167 132.5,119.5C 134.371,119.859 135.871,120.859 137,122.5C 137.232,121.263 137.732,120.263 138.5,119.5C 138.82,122.898 138.487,126.232 137.5,129.5C 135.253,130.374 132.92,130.708 130.5,130.5C 130.5,135.5 130.5,140.5 130.5,145.5C 129.277,142.602 127.277,140.269 124.5,138.5C 124.5,135.833 124.5,133.167 124.5,130.5C 122.08,130.708 119.747,130.374 117.5,129.5C 116.509,125.555 116.176,121.555 116.5,117.5C 111.866,116.686 107.533,115.019 103.5,112.5C 101.016,114.483 98.6829,116.65 96.5,119C 94.8333,119.667 93.1667,119.667 91.5,119C 86.7377,114.911 82.7377,110.244 79.5,105C 81.8333,102 84.1667,99 86.5,96C 84.5397,91.9529 82.8731,87.7862 81.5,83.5C 77.5546,82.5091 73.5546,82.1758 69.5,82.5C 69.5,79.8333 69.5,77.1667 69.5,74.5C 66.5,74.5 63.5,74.5 60.5,74.5C 58.2791,70.4886 54.9458,68.4886 50.5,68.5C 56.8333,68.5 63.1667,68.5 69.5,68.5C 69.1984,65.9407 69.5318,63.6074 70.5,61.5 Z"/></g>
<g><path style="opacity:0.88" fill="#ef6e12" d="M 136.5,60.5 C 142.157,63.1573 146.823,66.9906 150.5,72C 149.561,73.9439 148.227,75.6106 146.5,77C 143.795,79.3506 140.795,81.184 137.5,82.5C 134.754,81.9037 133.92,80.2371 135,77.5C 137.445,76.0229 139.612,74.1896 141.5,72C 138.685,69.5344 136.352,66.8677 134.5,64C 134.862,62.5657 135.528,61.3991 136.5,60.5 Z"/></g>
<g><path style="opacity:0.857" fill="#ec6815" d="M 117.5,60.5 C 120.077,61.6899 120.91,63.6899 120,66.5C 117.54,67.9578 115.373,69.7911 113.5,72C 115.388,74.1896 117.555,76.0229 120,77.5C 121.08,80.2371 120.246,81.9037 117.5,82.5C 114.205,81.184 111.205,79.3506 108.5,77C 104.366,74.7972 103.699,71.9639 106.5,68.5C 110.23,65.7477 113.897,63.0811 117.5,60.5 Z"/></g>
<g><path style="opacity:0.898" fill="#ed6c14" d="M 123.5,60.5 C 125.144,60.2865 126.644,60.6198 128,61.5C 130.49,68.5927 131.657,75.7594 131.5,83C 129.888,83.7203 128.388,83.5536 127,82.5C 124.187,75.2955 123.021,67.9622 123.5,60.5 Z"/></g>
<g><path style="opacity:0.519" fill="#e3561e" d="M 50.5,68.5 C 54.9458,68.4886 58.2791,70.4886 60.5,74.5C 57.1501,74.335 53.8168,74.5017 50.5,75C 48.9391,75.3176 47.7724,76.1509 47,77.5C 46.5001,91.1626 46.3334,104.829 46.5,118.5C 46.2421,114.7 44.4087,111.7 41,109.5C 40.8285,116.679 40.3285,123.679 39.5,130.5C 39.3334,113.163 39.5001,95.8301 40,78.5C 40.7323,72.2678 44.2323,68.9345 50.5,68.5 Z"/></g>
<g><path style="opacity:0.941" fill="#ef7012" d="M 177.5,76.5 C 179.167,78.5 180.833,80.5 182.5,82.5C 179.428,82.1826 176.428,82.5159 173.5,83.5C 172.127,87.7862 170.46,91.9529 168.5,96C 170.833,99 173.167,102 175.5,105C 172.39,110.277 168.39,114.777 163.5,118.5C 159.5,114.167 155.5,109.833 151.5,105.5C 152.552,105.351 153.552,105.517 154.5,106C 156.35,108.018 158.35,109.851 160.5,111.5C 162.984,109.517 165.317,107.35 167.5,105C 165.333,102.833 163.167,100.667 161,98.5C 160.333,97.5 160.333,96.5 161,95.5C 164.274,89.4565 167.108,83.2898 169.5,77C 172.146,76.5026 174.813,76.3359 177.5,76.5 Z"/></g>
<g><path style="opacity:0.87" fill="#eb6615" d="M 151.5,105.5 C 155.5,109.833 159.5,114.167 163.5,118.5C 161.932,119.473 160.265,119.64 158.5,119C 156.317,116.65 153.984,114.483 151.5,112.5C 146.843,114.655 142.51,116.988 138.5,119.5C 137.732,120.263 137.232,121.263 137,122.5C 135.871,120.859 134.371,119.859 132.5,119.5C 132.192,117.076 132.526,114.743 133.5,112.5C 139.861,110.938 145.861,108.605 151.5,105.5 Z"/></g>
<g><path style="opacity:0.92" fill="#f27211" d="M 214.5,78.5 C 215.497,95.6586 215.83,112.992 215.5,130.5C 220.5,130.5 225.5,130.5 230.5,130.5C 231.136,139.565 230.47,148.231 228.5,156.5C 226.833,154.5 225.167,152.5 223.5,150.5C 224.486,146.03 224.819,141.363 224.5,136.5C 219.167,136.5 213.833,136.5 208.5,136.5C 206.503,132.812 203.503,130.812 199.5,130.5C 202.5,130.5 205.5,130.5 208.5,130.5C 208.5,127.833 208.5,125.167 208.5,122.5C 209.325,118.353 209.825,114.019 210,109.5C 211.333,110.833 212.667,112.167 214,113.5C 214.5,101.838 214.667,90.1714 214.5,78.5 Z"/></g>
<g><path style="opacity:0.916" fill="#df4d23" d="M 46.5,118.5 C 46.5,122.5 46.5,126.5 46.5,130.5C 51.5,130.5 56.5,130.5 61.5,130.5C 61.5,139.167 61.5,147.833 61.5,156.5C 59.5,156.5 57.5,156.5 55.5,156.5C 53.5034,152.812 50.5034,150.812 46.5,150.5C 49.5,150.5 52.5,150.5 55.5,150.5C 55.5,145.833 55.5,141.167 55.5,136.5C 47.1667,136.5 38.8333,136.5 30.5,136.5C 30.5,137.833 30.5,139.167 30.5,140.5C 28.5,138.833 26.5,137.167 24.5,135.5C 24.5,133.833 24.5,132.167 24.5,130.5C 29.5,130.5 34.5,130.5 39.5,130.5C 40.3285,123.679 40.8285,116.679 41,109.5C 44.4087,111.7 46.2421,114.7 46.5,118.5 Z"/></g>
<g><path style="opacity:0.894" fill="#dc4726" d="M 24.5,135.5 C 26.5,137.167 28.5,138.833 30.5,140.5C 30.5,143.833 30.5,147.167 30.5,150.5C 35.8333,150.5 41.1667,150.5 46.5,150.5C 50.5034,150.812 53.5034,152.812 55.5,156.5C 45.1667,156.5 34.8333,156.5 24.5,156.5C 24.5,149.5 24.5,142.5 24.5,135.5 Z"/></g>
<g><path style="opacity:0.825" fill="#ed6c14" d="M 199.5,130.5 C 203.503,130.812 206.503,132.812 208.5,136.5C 205.5,136.5 202.5,136.5 199.5,136.5C 199.5,141.167 199.5,145.833 199.5,150.5C 207.5,150.5 215.5,150.5 223.5,150.5C 225.167,152.5 226.833,154.5 228.5,156.5C 216.833,156.5 205.167,156.5 193.5,156.5C 193.5,147.833 193.5,139.167 193.5,130.5C 195.5,130.5 197.5,130.5 199.5,130.5 Z"/></g>
<g><path style="opacity:0.894" fill="#e55a1c" d="M 124.5,138.5 C 127.277,140.269 129.277,142.602 130.5,145.5C 130.173,150.214 130.507,154.88 131.5,159.5C 138.303,163.804 144.97,168.304 151.5,173C 154.482,173.498 157.482,173.665 160.5,173.5C 161.625,175.129 162.959,176.629 164.5,178C 161.635,178.183 158.969,178.683 156.5,179.5C 151.167,179.83 146.5,181.83 142.5,185.5C 141.925,183.589 140.925,181.922 139.5,180.5C 141.094,179.017 142.76,177.517 144.5,176C 138.833,172.167 133.167,168.333 127.5,164.5C 126.482,165.193 125.482,165.859 124.5,166.5C 123.415,164.413 121.749,163.08 119.5,162.5C 120.765,161.521 122.099,160.521 123.5,159.5C 124.497,152.532 124.83,145.532 124.5,138.5 Z"/></g>
<g><path style="opacity:0.863" fill="#e75f1a" d="M 160.5,173.5 C 166.176,173.334 171.843,173.501 177.5,174C 179.333,175.167 180.833,176.667 182,178.5C 183.403,189.102 183.903,199.769 183.5,210.5C 182.674,205.684 182.174,200.684 182,195.5C 180.296,193.627 178.463,191.96 176.5,190.5C 176.665,187.482 176.498,184.482 176,181.5C 175.5,181 175,180.5 174.5,180C 168.509,179.501 162.509,179.334 156.5,179.5C 158.969,178.683 161.635,178.183 164.5,178C 162.959,176.629 161.625,175.129 160.5,173.5 Z"/></g>
<g><path style="opacity:0.903" fill="#e15220" d="M 119.5,162.5 C 121.749,163.08 123.415,164.413 124.5,166.5C 119.714,169.445 115.048,172.612 110.5,176C 115.821,180.328 121.488,184.162 127.5,187.5C 131.534,185.112 135.534,182.778 139.5,180.5C 140.925,181.922 141.925,183.589 142.5,185.5C 137.756,188.908 132.756,191.908 127.5,194.5C 119.534,190.181 111.868,185.348 104.5,180C 96.5069,179.5 88.5069,179.334 80.5,179.5C 78.2512,178.92 76.5846,177.587 75.5,175.5C 76.2891,175.217 76.9558,174.717 77.5,174C 86.1667,173.667 94.8333,173.333 103.5,173C 108.691,169.241 114.024,165.741 119.5,162.5 Z"/></g>
<g><path style="opacity:0.909" fill="#e5591c" d="M 176.5,190.5 C 178.463,191.96 180.296,193.627 182,195.5C 182.174,200.684 182.674,205.684 183.5,210.5C 195.522,215.199 198.522,223.199 192.5,234.5C 190.615,232.947 189.615,230.947 189.5,228.5C 189.459,218.782 184.792,215.116 175.5,217.5C 174.415,215.413 172.749,214.08 170.5,213.5C 171.937,212.275 173.604,211.275 175.5,210.5C 176.497,203.866 176.83,197.2 176.5,190.5 Z"/></g>
<g><path style="opacity:0.946" fill="#db4327" d="M 75.5,175.5 C 76.5846,177.587 78.2512,178.92 80.5,179.5C 80.2172,180.289 79.7172,180.956 79,181.5C 78.1679,191.184 78.3345,200.851 79.5,210.5C 89.8153,215.138 92.982,222.805 89,233.5C 87.9243,236.079 86.091,237.746 83.5,238.5C 82.5,236.833 81.1667,235.5 79.5,234.5C 85.6214,229.295 85.9548,223.795 80.5,218C 75.203,215.541 70.5363,216.375 66.5,220.5C 65.2058,219.71 64.0391,218.71 63,217.5C 62.6174,218.056 62.1174,218.389 61.5,218.5C 63.1909,214.482 66.1909,211.815 70.5,210.5C 71.3321,201.184 71.8321,191.851 72,182.5C 72.1439,179.558 73.3106,177.224 75.5,175.5 Z"/></g>
<g><path style="opacity:0.93" fill="#d83c2a" d="M 66.5,220.5 C 64.1267,228.418 66.9601,233.418 75,235.5C 76.4397,234.852 77.9397,234.519 79.5,234.5C 81.1667,235.5 82.5,236.833 83.5,238.5C 73.0183,244.022 65.185,241.356 60,230.5C 59.0876,226.194 59.5876,222.194 61.5,218.5C 62.1174,218.389 62.6174,218.056 63,217.5C 64.0391,218.71 65.2058,219.71 66.5,220.5 Z"/></g>
<g><path style="opacity:0.903" fill="#e3541f" d="M 170.5,213.5 C 172.749,214.08 174.415,215.413 175.5,217.5C 168.856,222.875 168.856,228.375 175.5,234C 181.717,236.204 186.384,234.371 189.5,228.5C 189.615,230.947 190.615,232.947 192.5,234.5C 186.001,242.274 178.334,243.441 169.5,238C 164.911,233.034 163.411,227.2 165,220.5C 165.935,217.405 167.769,215.071 170.5,213.5 Z"/></g>
</svg>
